# xmcd CD database file
#
# Track frame offsets:
#	150
#	21920
#	40870
#	60382
#	81290
#	103385
#	126495
#	153412
#	173475
#	195637
#	210895
#	232830
#
# Disc length: 3380 seconds
#
# Revision: 12
# Processed by: cddbd v1.5.2PL0 Copyright (c) Steve Scherf et al.
# Submitted via: CDex 1.70beta2
#
DISCID=950d320c
DTITLE=이승환 - Egg_Sunny-side Up
DYEAR=2001
DGENRE=Pop
TTITLE0=잘못
TTITLE1=a song for you
TTITLE2=christmas wishes
TTITLE3=기다림
TTITLE4=사랑하나요!?
TTITLE5=삼촌 장가가요
TTITLE6=晩秋
TTITLE7=이별... 그 찰나의 혼돈
TTITLE8=푸른 아침 상념
TTITLE9=나 잡아봐라~
TTITLE10=춤바람
TTITLE11=엄마
EXTD=YEAR: 2001
EXTT0=
EXTT1=
EXTT2=
EXTT3=
EXTT4=
EXTT5=
EXTT6=
EXTT7=
EXTT8=
EXTT9=
EXTT10=
EXTT11=
PLAYORDER=
